<?xml version="1.0" encoding="iso-8859-1"?>
<!-- Generator: Adobe Illustrator 19.0.0, SVG Export Plug-In . SVG Version: 6.00 Build 0)  -->
<svg version="1.1" id="Layer_1" xmlns="http://www.w3.org/2000/svg" xmlns:xlink="http://www.w3.org/1999/xlink" x="0px" y="0px"
	 viewBox="0 0 508.609 508.609" style="enable-background:new 0 0 508.609 508.609;" xml:space="preserve">
<path style="fill:#F1F3F7;" d="M254.305,455.375c55.269,0,100.705-42.723,104.774-96.975l-50.522-15.936H199.714L149.192,358.4
	C153.6,412.991,199.036,455.375,254.305,455.375z"/>
<g>
	<path style="fill:#EEB490;" d="M199.714,260.408V358.4c0,36.62,24.413,59.677,54.591,59.677s54.591-23.057,54.591-59.677v-97.992
		H199.714z"/>
	<circle style="fill:#EEB490;" cx="164.111" cy="224.805" r="35.603"/>
	<circle style="fill:#EEB490;" cx="344.498" cy="224.805" r="35.603"/>
</g>
<path style="fill:#FACCB4;" d="M298.045,139.698h-87.481c-27.804,0-50.183,22.379-50.183,50.183v50.183
	c0,51.878,42.045,94.262,94.262,94.262l0,0c51.878,0,94.262-42.045,94.262-94.262v-50.183
	C348.567,162.077,325.849,139.698,298.045,139.698z"/>
<g>
	<circle style="fill:#F1F3F7;" cx="254.305" cy="54.591" r="54.591"/>
	<path style="fill:#F1F3F7;" d="M254.305,58.66c-66.119,0-119.693,53.574-119.693,119.693c0,0.678,0,1.017,0,1.356h136.307
		l14.241-54.93l16.275,54.93h72.562c0-0.339,0-1.017,0-1.356C373.997,112.233,320.424,58.66,254.305,58.66z"/>
</g>
<path style="fill:#EA5F6E;" d="M397.732,370.607L359.078,358.4c-4.408,54.252-49.505,96.975-104.774,96.975
	S153.6,412.652,149.531,358.4l-38.654,12.207c-31.873,12.885-58.321,32.212-58.321,65.78v72.223h403.497v-72.223
	C456.053,403.158,430.962,384.509,397.732,370.607z"/>
<g>
</g>
<g>
</g>
<g>
</g>
<g>
</g>
<g>
</g>
<g>
</g>
<g>
</g>
<g>
</g>
<g>
</g>
<g>
</g>
<g>
</g>
<g>
</g>
<g>
</g>
<g>
</g>
<g>
</g>
</svg>
