<?xml version="1.0" encoding="iso-8859-1"?>
<!-- Generator: Adobe Illustrator 19.0.0, SVG Export Plug-In . SVG Version: 6.00 Build 0)  -->
<svg version="1.1" id="Layer_1" xmlns="http://www.w3.org/2000/svg" xmlns:xlink="http://www.w3.org/1999/xlink" x="0px" y="0px"
	 viewBox="0 0 508.948 508.948" style="enable-background:new 0 0 508.948 508.948;" xml:space="preserve">
<path style="fill:#1B9ED6;" d="M360.942,318.389l-38.315-50.861H255.49l-1.695-23.735l-67.136,23.735l-38.315,50.861
	C85.276,329.918,37.467,385.187,37.467,451.645v57.303H471.48v-57.303C471.819,385.187,424.01,329.918,360.942,318.389z"/>
<rect x="220.566" y="272.954" style="fill:#EEB490;" width="68.832" height="53.913"/>
<g>
	<polygon style="fill:#29B5E5;" points="322.627,267.528 254.812,329.24 308.386,395.698 360.942,318.389 	"/>
	<polygon style="fill:#29B5E5;" points="186.998,267.528 254.812,329.24 201.239,395.698 148.683,318.389 	"/>
</g>
<g>
	<circle style="fill:#EEB490;" cx="167.671" cy="171.232" r="35.603"/>
	<circle style="fill:#EEB490;" cx="341.954" cy="171.232" r="35.603"/>
</g>
<path style="fill:#FACCB4;" d="M254.812,50.861L254.812,50.861c-50.522,0-91.211,40.689-91.211,91.211v66.797
	c0,50.522,40.689,91.211,91.211,91.211l0,0c50.522,0,91.211-40.689,91.211-91.211v-66.797
	C346.023,91.889,305.334,50.861,254.812,50.861z"/>
<polygon style="fill:#F1F3F7;" points="254.812,0 79.851,150.209 429.774,150.209 "/>
<g>
</g>
<g>
</g>
<g>
</g>
<g>
</g>
<g>
</g>
<g>
</g>
<g>
</g>
<g>
</g>
<g>
</g>
<g>
</g>
<g>
</g>
<g>
</g>
<g>
</g>
<g>
</g>
<g>
</g>
</svg>
