<?xml version="1.0" encoding="iso-8859-1"?>
<!-- Generator: Adobe Illustrator 19.0.0, SVG Export Plug-In . SVG Version: 6.00 Build 0)  -->
<svg version="1.1" id="Layer_1" xmlns="http://www.w3.org/2000/svg" xmlns:xlink="http://www.w3.org/1999/xlink" x="0px" y="0px"
	 viewBox="0 0 508.609 508.609" style="enable-background:new 0 0 508.609 508.609;" xml:space="preserve">
<path style="fill:#F1F3F7;" d="M341.955,276.005h-175.64c-80.36,0-145.462,65.102-145.462,145.462v87.142h466.903v-87.142
	C487.756,341.107,422.315,276.005,341.955,276.005z"/>
<rect x="245.997" y="337.377" style="fill:#BDBDBE;" width="15.936" height="171.232"/>
<g>
	<circle style="fill:#EEB490;" cx="160.551" cy="145.462" r="38.315"/>
	<circle style="fill:#EEB490;" cx="347.719" cy="145.462" r="38.315"/>
	<ellipse style="fill:#EEB490;" cx="254.135" cy="278.718" rx="65.102" ry="81.038"/>
</g>
<g>
	<path style="fill:#F1F3F7;" d="M352.127,117.997V97.992c0-32.89-16.276-62.05-41.028-79.682
		C307.709,39.672,305.674,87.481,352.127,117.997z"/>
	<path style="fill:#F1F3F7;" d="M197.171,18.31c-24.752,17.632-41.028,46.792-41.028,79.682v20.005
		C202.596,87.481,200.562,39.672,197.171,18.31z"/>
</g>
<path style="fill:#FACCB4;" d="M311.099,18.31C295.163,6.781,275.158,0,254.135,0s-41.028,6.781-56.964,18.31
	c3.73,21.362,5.425,69.171-41.028,99.687v66.119c0,53.574,42.045,98.67,95.279,100.027c55.269,1.356,100.705-43.062,100.705-97.992
	v-68.154C305.674,87.481,307.709,39.672,311.099,18.31z"/>
<g>
	<circle style="fill:#F1F3F7;" cx="212.09" cy="153.939" r="32.89"/>
	<circle style="fill:#F1F3F7;" cx="296.18" cy="153.939" r="32.89"/>
</g>
<g>
</g>
<g>
</g>
<g>
</g>
<g>
</g>
<g>
</g>
<g>
</g>
<g>
</g>
<g>
</g>
<g>
</g>
<g>
</g>
<g>
</g>
<g>
</g>
<g>
</g>
<g>
</g>
<g>
</g>
</svg>
