<?xml version="1.0" encoding="iso-8859-1"?>
<!-- Generator: Adobe Illustrator 19.0.0, SVG Export Plug-In . SVG Version: 6.00 Build 0)  -->
<svg version="1.1" id="Layer_1" xmlns="http://www.w3.org/2000/svg" xmlns:xlink="http://www.w3.org/1999/xlink" x="0px" y="0px"
	 viewBox="0 0 508.948 508.948" style="enable-background:new 0 0 508.948 508.948;" xml:space="preserve">
<path style="fill:#608287;" d="M360.604,318.389l-38.315-50.861H186.66l-38.315,50.861
	C85.277,329.918,37.468,385.187,37.468,451.645v57.303h434.013v-57.303C471.481,385.187,423.672,329.918,360.604,318.389z"/>
<polygon style="fill:#FF667C;" points="186.66,267.528 181.234,332.291 222.601,445.881 254.474,508.609 309.065,402.819 
	328.392,313.303 322.289,267.528 "/>
<g>
	<polygon style="fill:#608287;" points="186.66,267.528 254.474,508.609 155.804,412.991 185.303,381.796 145.293,376.032 
		148.344,318.389 	"/>
	<polygon style="fill:#608287;" points="322.289,267.528 254.474,508.609 353.144,412.991 323.645,381.796 363.656,376.032 
		360.604,318.389 	"/>
</g>
<g>
	<circle style="fill:#EEB490;" cx="167.332" cy="171.232" r="35.603"/>
	<circle style="fill:#EEB490;" cx="341.616" cy="171.232" r="35.603"/>
</g>
<path style="fill:#FACCB4;" d="M254.474,50.861L254.474,50.861c-50.522,0-91.211,40.689-91.211,91.211v66.797
	c0,50.522,40.689,91.211,91.211,91.211l0,0c50.522,0,91.211-40.689,91.211-91.211v-66.797
	C345.685,91.889,304.996,50.861,254.474,50.861z"/>
<g>
	<path style="fill:#8A6753;" d="M408.074,142.072h-307.2c-3.73,0-6.781-3.052-6.781-6.781s3.052-6.781,6.781-6.781h306.861
		c3.73,0,6.781,3.052,6.781,6.781S411.804,142.072,408.074,142.072z"/>
	<path style="fill:#8A6753;" d="M353.144,135.29h-197.34V55.269C155.804,24.752,180.556,0,211.073,0h87.142
		c30.517,0,55.269,24.752,55.269,55.269v80.021H353.144z"/>
</g>
<g>
</g>
<g>
</g>
<g>
</g>
<g>
</g>
<g>
</g>
<g>
</g>
<g>
</g>
<g>
</g>
<g>
</g>
<g>
</g>
<g>
</g>
<g>
</g>
<g>
</g>
<g>
</g>
<g>
</g>
</svg>
