<?xml version="1.0" encoding="iso-8859-1"?>
<!-- Generator: Adobe Illustrator 19.0.0, SVG Export Plug-In . SVG Version: 6.00 Build 0)  -->
<svg version="1.1" id="Layer_1" xmlns="http://www.w3.org/2000/svg" xmlns:xlink="http://www.w3.org/1999/xlink" x="0px" y="0px"
	 viewBox="0 0 508.609 508.609" style="enable-background:new 0 0 508.609 508.609;" xml:space="preserve">
<path style="fill:#FF667C;" d="M352.636,69.171C341.107,29.499,301.436,0,254.305,0s-86.803,29.16-98.331,69.171
	c-40.011,13.902-58.321,67.136-41.367,120.371c17.293,53.574,64.424,86.124,105.452,72.901
	c14.241-4.747,26.109-14.241,34.246-27.465c8.477,12.885,20.005,22.718,34.246,27.465c40.689,13.224,88.159-19.666,105.452-72.901
	C410.956,136.307,392.646,83.073,352.636,69.171z"/>
<path style="fill:#EEB490;" d="M309.234,313.981c0-41.367,0-82.734,0-124.44c-36.62,0-72.901,0-109.521,0
	c0,41.367,0,82.734,0,124.44l-73.24,17.293l127.83,128.17l128.17-128.17L309.234,313.981z"/>
<g>
	<path style="fill:#F1F3F7;" d="M199.375,258.374c0-23.057,0-46.114,0-68.832l0,0C199.375,212.599,199.375,235.317,199.375,258.374
		L199.375,258.374z"/>
	<polygon style="fill:#F1F3F7;" points="254.305,403.836 170.893,320.763 126.135,331.274 254.305,459.444 382.474,331.274 
		337.717,320.763 	"/>
</g>
<path style="fill:#9D90C5;" d="M433.674,343.142l-51.2-12.207l-128.17,128.509l-128.17-128.17l-51.2,12.207
	c-29.16,6.781-49.505,30.856-49.505,58.66v106.469h457.748V402.14C483.179,374.336,462.834,350.262,433.674,343.142z"/>
<path style="fill:#FACCB4;" d="M306.522,101.722c-10.511,16.954-29.838,28.143-52.217,28.143s-42.045-11.528-52.217-28.143
	c-17.971,14.919-29.16,37.298-29.16,62.389v42.384c0,45.775,37.298,84.09,83.073,83.412c44.079-1.017,80.021-37.298,80.021-81.717
	v-44.079C336.021,139.02,324.493,116.641,306.522,101.722z"/>
<g>
</g>
<g>
</g>
<g>
</g>
<g>
</g>
<g>
</g>
<g>
</g>
<g>
</g>
<g>
</g>
<g>
</g>
<g>
</g>
<g>
</g>
<g>
</g>
<g>
</g>
<g>
</g>
<g>
</g>
</svg>
