<?xml version="1.0" encoding="iso-8859-1"?>
<!-- Generator: Adobe Illustrator 19.0.0, SVG Export Plug-In . SVG Version: 6.00 Build 0)  -->
<svg version="1.1" id="Layer_1" xmlns="http://www.w3.org/2000/svg" xmlns:xlink="http://www.w3.org/1999/xlink" x="0px" y="0px"
	 viewBox="0 0 508.609 508.609" style="enable-background:new 0 0 508.609 508.609;" xml:space="preserve">
<path style="fill:#C19D7B;" d="M130.882,169.876c-3.73,0-6.781-3.052-6.781-6.781v-32.89C124.101,58.321,182.421,0,254.305,0
	c34.925,0,67.475,13.563,92.228,37.976c24.752,24.752,37.976,57.303,37.976,92.228v32.89c0,3.73-3.052,6.781-6.781,6.781
	c-3.73,0-6.781-3.052-6.781-6.781v-32.89c0-31.195-12.207-60.694-34.246-82.734c-21.701-22.04-51.2-34.246-82.395-34.246
	c-64.424,0-116.98,52.556-116.98,116.98v32.89C137.325,166.824,134.612,169.876,130.882,169.876z"/>
<path style="fill:#1B9ED6;" d="M338.056,286.856H170.554c-76.63,0-138.681,62.05-138.681,138.681v83.073h444.864v-83.073
	C476.736,348.906,414.686,286.856,338.056,286.856z"/>
<circle style="fill:#EEB490;" cx="254.305" cy="274.31" r="62.05"/>
<circle style="fill:#1B9ED6;" cx="130.204" cy="165.128" r="25.43"/>
<path style="fill:#F1F3F7;" d="M143.089,126.474c-1.695,0.339-3.052,0.678-4.747,1.017c-4.747,1.356-7.799,6.781-7.799,12.207
	v50.522c0,5.764,3.73,10.85,8.477,12.207c1.356,0.339,2.374,0.678,3.73,1.017c20.344,3.052,39.332-14.58,38.315-40.011
	C180.726,140.037,162.077,123.762,143.089,126.474z"/>
<circle style="fill:#1B9ED6;" cx="378.405" cy="165.128" r="25.43"/>
<path style="fill:#F1F3F7;" d="M365.521,203.444c1.695-0.339,3.052-0.678,4.747-1.017c4.747-1.356,7.799-6.781,7.799-12.207v-50.522
	c0-5.764-3.73-10.85-8.477-12.207c-1.356-0.339-2.374-0.678-3.73-1.017c-20.344-3.052-39.332,14.58-38.315,40.011
	C327.883,190.22,346.532,206.495,365.521,203.444z"/>
<path style="fill:#56545F;" d="M264.816,84.429l24.752,41.706h57.981c-3.391-48.487-43.74-86.464-93.245-86.464
	c-49.166,0-89.515,37.976-93.245,86.464h86.803L264.816,84.429z"/>
<path style="fill:#FACCB4;" d="M289.568,126.135l-24.752-41.706l-16.954,41.706H161.06c0,2.374-0.339,4.408-0.339,6.781v68.493
	c0,51.539,41.706,93.584,93.584,93.584c51.539,0,93.584-41.706,93.584-93.584v-68.493c0-2.374,0-4.747-0.339-6.781H289.568z"/>
<g>
</g>
<g>
</g>
<g>
</g>
<g>
</g>
<g>
</g>
<g>
</g>
<g>
</g>
<g>
</g>
<g>
</g>
<g>
</g>
<g>
</g>
<g>
</g>
<g>
</g>
<g>
</g>
<g>
</g>
</svg>
