<?xml version="1.0" encoding="iso-8859-1"?>
<!-- Generator: Adobe Illustrator 19.0.0, SVG Export Plug-In . SVG Version: 6.00 Build 0)  -->
<svg version="1.1" id="Layer_1" xmlns="http://www.w3.org/2000/svg" xmlns:xlink="http://www.w3.org/1999/xlink" x="0px" y="0px"
	 viewBox="0 0 508.609 508.609" style="enable-background:new 0 0 508.609 508.609;" xml:space="preserve">
<path style="fill:#1B9ED6;" d="M491.656,508.609H16.954v-84.768c0-39.332,29.499-72.562,68.493-77.648l104.774-12.885h128.17
	l104.774,12.885c38.993,4.747,68.493,37.976,68.493,77.648V508.609z"/>
<g>
	<path style="fill:#F1F3F7;" d="M186.829,291.603c-14.919,0-27.126,13.563-27.126,30.517v104.095
		c0,28.821,19.666,53.574,45.097,54.93c27.126,1.356,49.505-23.057,49.505-53.234V291.603H186.829z"/>
	<path style="fill:#F1F3F7;" d="M321.78,291.603h-67.476v134.612c0,28.821,19.666,53.574,45.097,54.93
		c27.126,1.356,49.505-23.057,49.505-53.234V322.119C348.906,305.166,336.699,291.603,321.78,291.603z"/>
</g>
<g>
	<polygon style="fill:#C19D7B;" points="118.675,313.303 145.123,201.07 47.131,261.764 	"/>
	<polygon style="fill:#C19D7B;" points="389.934,313.303 363.486,201.07 461.478,261.764 	"/>
	<path style="fill:#C19D7B;" d="M388.577,189.203v-54.93C388.577,60.016,328.562,0,254.305,0l0,0
		c-74.257,0-134.273,60.016-134.273,134.273v54.93H388.577z"/>
</g>
<g>
	<circle style="fill:#EEB490;" cx="153.939" cy="190.559" r="33.907"/>
	<circle style="fill:#EEB490;" cx="354.67" cy="190.559" r="33.907"/>
	<path style="fill:#EEB490;" d="M190.22,242.776v91.55c0,35.264,28.821,64.085,64.085,64.085s64.085-28.821,64.085-64.085v-91.55
		H190.22z"/>
</g>
<path style="fill:#FACCB4;" d="M324.154,135.968c-30.517,0-56.964-17.632-69.849-43.062c-12.885,25.43-39.332,43.062-69.849,43.062
	c-6.781,0-13.563-1.017-20.005-2.713v88.498c0,49.505,40.35,89.854,89.854,89.854l0,0c49.505,0,89.854-40.35,89.854-89.854v-88.498
	C337.717,134.951,331.274,135.968,324.154,135.968z"/>
<g>
</g>
<g>
</g>
<g>
</g>
<g>
</g>
<g>
</g>
<g>
</g>
<g>
</g>
<g>
</g>
<g>
</g>
<g>
</g>
<g>
</g>
<g>
</g>
<g>
</g>
<g>
</g>
<g>
</g>
</svg>
