<?xml version="1.0" encoding="iso-8859-1"?>
<!-- Generator: Adobe Illustrator 19.0.0, SVG Export Plug-In . SVG Version: 6.00 Build 0)  -->
<svg version="1.1" id="Layer_1" xmlns="http://www.w3.org/2000/svg" xmlns:xlink="http://www.w3.org/1999/xlink" x="0px" y="0px"
	 viewBox="0 0 508.609 508.609" style="enable-background:new 0 0 508.609 508.609;" xml:space="preserve">
<path style="fill:#F1F3F7;" d="M345.007,268.207H163.264c-83.073,0-150.209,67.476-150.209,150.548v89.854h482.501v-89.854
	C495.216,335.682,428.079,268.207,345.007,268.207z"/>
<path style="fill:#C19D7B;" d="M389.086,400.445V275.327c-11.189-3.391-22.718-5.764-34.925-6.781v88.159l-99.687,99.687
	l-99.687-99.687v-88.159c-12.207,0.678-23.735,3.052-34.924,6.781v125.118c0,19.327-15.597,34.924-34.924,34.924v73.24h169.875
	h169.875v-73.24C404.683,435.37,389.086,419.772,389.086,400.445z"/>
<g>
	<circle style="fill:#EEB490;" cx="254.135" cy="250.236" r="67.476"/>
	<circle style="fill:#EEB490;" cx="157.499" cy="133.595" r="39.672"/>
	<circle style="fill:#EEB490;" cx="350.771" cy="133.595" r="39.672"/>
</g>
<path style="fill:#F1F3F7;" d="M254.135,0L254.135,0c-55.947,0-101.383,45.436-101.383,101.383v74.257
	c0,55.947,45.436,101.383,101.383,101.383l0,0c55.947,0,101.383-45.436,101.383-101.383v-74.257C355.518,45.436,310.082,0,254.135,0
	z"/>
<path style="fill:#FACCB4;" d="M254.135,0c-36.281,0-68.154,18.988-86.125,47.809l0,0v103.756c0,29.838,14.919,55.947,37.976,71.205
	c4.069-22.718,24.074-40.011,48.148-40.011s43.74,17.293,48.148,40.011c23.057-15.597,37.976-41.706,37.976-71.205V47.809l0,0
	C322.289,18.988,290.416,0,254.135,0z"/>
<g>
</g>
<g>
</g>
<g>
</g>
<g>
</g>
<g>
</g>
<g>
</g>
<g>
</g>
<g>
</g>
<g>
</g>
<g>
</g>
<g>
</g>
<g>
</g>
<g>
</g>
<g>
</g>
<g>
</g>
</svg>
