<?xml version="1.0" encoding="iso-8859-1"?>
<!-- Generator: Adobe Illustrator 19.0.0, SVG Export Plug-In . SVG Version: 6.00 Build 0)  -->
<svg version="1.1" id="Capa_1" xmlns="http://www.w3.org/2000/svg" xmlns:xlink="http://www.w3.org/1999/xlink" x="0px" y="0px"
	 viewBox="0 0 512 512" style="enable-background:new 0 0 512 512;" xml:space="preserve">
<g>
	<path style="fill:#F5CDB3;" d="M362.083,512H149.919c-16.752,0-30.333-13.581-30.333-30.333V365.2
		c0-36.272,29.404-65.676,65.676-65.676H326.74c36.272,0,65.676,29.404,65.676,65.676v116.466
		C392.416,498.419,378.835,512,362.083,512z"/>
	<path style="fill:#F5CDB3;" d="M233.448,273.962c-46.306,0-83.843-37.538-83.843-83.841v-45.104
		c0-46.306,37.538-83.843,83.843-83.843h45.101c46.308,0,83.847,37.538,83.847,83.843v45.104c0,46.302-37.538,83.841-83.847,83.841
		H233.448z"/>
</g>
<g>
	<path style="fill:#F0A479;" d="M326.74,299.525h-70.592v151.383h-11.591V512h117.526c16.752,0,30.333-13.581,30.333-30.333V365.2
		C392.416,328.929,363.012,299.525,326.74,299.525z"/>
	<path style="fill:#F0A479;" d="M278.549,61.174h-22.402v212.789h22.402c46.308,0,83.847-37.538,83.847-83.841v-45.104
		C362.396,98.712,324.858,61.174,278.549,61.174z"/>
</g>
<path style="fill:#74D6D0;" d="M364.809,311.701L234.441,434.36l-78.928-127.707c-21.317,10.853-35.93,32.986-35.93,58.547v116.466
	c0,16.752,13.581,30.333,30.333,30.333h2.004h130.503h79.657c16.752,0,30.333-13.581,30.333-30.333V365.2
	C392.416,343.125,381.512,323.608,364.809,311.701z"/>
<path style="fill:#CCF7F5;" d="M256.001,414.076L256.001,414.076L155.515,306.654c-21.317,10.853-35.93,32.986-35.93,58.547v116.466
	c0,16.752,13.581,30.333,30.333,30.333h106.082V414.076z"/>
<path style="fill:#F4F4F4;" d="M338.655,456.722h-34.316c-9.803,0-17.751-7.948-17.751-17.751c0-9.803,7.948-17.751,17.751-17.751
	h34.318c9.803,0,17.751,7.948,17.751,17.751C356.407,448.774,348.459,456.722,338.655,456.722z"/>
<path style="fill:#E0E0E0;" d="M362.396,145.017c0-21.641-8.212-41.352-21.675-56.221V66.762C340.721,29.891,310.83,0,273.956,0
	h-35.913c-36.872,0-66.762,29.891-66.762,66.762v22.002c-13.468,14.875-21.675,34.605-21.675,56.253v30.151
	c14.112-1.133,36.1-4.047,61.346-11.477c8.282,3.683,17.443,5.747,27.092,5.747h35.913c18.842,0,35.848-7.816,47.987-20.369
	c17.768,8.76,31.215,17.69,40.454,24.693v-28.745H362.396z"/>
<path style="fill:#F4F4F4;" d="M256.001,0h-17.957c-36.872,0-66.762,29.891-66.762,66.762v22.002
	c-13.468,14.875-21.675,34.605-21.675,56.253v30.151c14.112-1.133,36.1-4.047,61.346-11.477c8.282,3.683,17.443,5.747,27.092,5.747
	h17.957V0L256.001,0z"/>
<g>
</g>
<g>
</g>
<g>
</g>
<g>
</g>
<g>
</g>
<g>
</g>
<g>
</g>
<g>
</g>
<g>
</g>
<g>
</g>
<g>
</g>
<g>
</g>
<g>
</g>
<g>
</g>
<g>
</g>
</svg>
