<?xml version="1.0" encoding="iso-8859-1"?>
<!-- Generator: Adobe Illustrator 19.0.0, SVG Export Plug-In . SVG Version: 6.00 Build 0)  -->
<svg version="1.1" id="Layer_1" xmlns="http://www.w3.org/2000/svg" xmlns:xlink="http://www.w3.org/1999/xlink" x="0px" y="0px"
	 viewBox="0 0 508.609 508.609" style="enable-background:new 0 0 508.609 508.609;" xml:space="preserve">
<path style="fill:#1B9ED6;" d="M479.788,508.609H28.821v-80.36c0-37.298,27.804-69.171,65.102-73.579l99.348-12.207h121.727
	l99.348,12.207c37.298,4.408,65.102,36.281,65.102,73.579v80.36H479.788z"/>
<rect x="193.272" y="342.464" style="fill:#F1F3F7;" width="121.727" height="166.146"/>
<path style="fill:#56545F;" d="M381.796,278.379V153.261c0-70.527-56.964-127.491-127.491-127.491l0,0
	c-70.527,0-127.491,56.964-127.491,127.491v125.118H381.796L381.796,278.379z"/>
<path style="fill:#EEB490;" d="M193.272,256.339v86.803c0,33.568,27.126,61.033,61.033,61.033c33.568,0,61.033-27.126,61.033-61.033
	v-86.803H193.272z"/>
<path style="fill:#FACCB4;" d="M254.305,321.78L254.305,321.78c-47.131,0-85.446-38.315-85.446-85.446v-90.872h170.893v91.211
	C339.751,283.465,301.436,321.78,254.305,321.78z"/>
<rect x="175.64" style="fill:#1B9ED6;" width="157.669" height="91.889"/>
<g>
</g>
<g>
</g>
<g>
</g>
<g>
</g>
<g>
</g>
<g>
</g>
<g>
</g>
<g>
</g>
<g>
</g>
<g>
</g>
<g>
</g>
<g>
</g>
<g>
</g>
<g>
</g>
<g>
</g>
</svg>
