<?xml version="1.0" encoding="iso-8859-1"?>
<!-- Generator: Adobe Illustrator 19.0.0, SVG Export Plug-In . SVG Version: 6.00 Build 0)  -->
<svg version="1.1" id="Layer_1" xmlns="http://www.w3.org/2000/svg" xmlns:xlink="http://www.w3.org/1999/xlink" x="0px" y="0px"
	 viewBox="0 0 508.609 508.609" style="enable-background:new 0 0 508.609 508.609;" xml:space="preserve">
<path style="fill:#1B9ED6;" d="M254.135,456.392c97.653,0,179.03-44.758,198.697-104.773c-8.138-4.069-16.954-7.121-26.787-8.138
	l-106.469-12.885H189.033l0,0L82.564,343.481c-9.494,1.017-18.649,4.069-26.787,8.138
	C75.105,411.295,156.482,456.392,254.135,456.392z"/>
<path style="fill:#D34A5E;" d="M185.303,20.344c-68.493,0-124.101,55.608-124.101,124.44v171.232
	c68.493,0,124.101-55.608,124.101-124.101L185.303,20.344L185.303,20.344z"/>
<circle style="fill:#F1F3F7;" cx="185.981" cy="45.097" r="45.097"/>
<path style="fill:#D34A5E;" d="M322.967,20.344c68.493,0,124.101,55.608,124.101,124.101v171.232
	c-68.493,0-124.101-55.608-124.101-124.101L322.967,20.344L322.967,20.344z"/>
<circle style="fill:#F1F3F7;" cx="322.289" cy="45.097" r="45.097"/>
<circle style="fill:#FF667C;" cx="254.135" cy="129.187" r="108.842"/>
<g>
	<path style="fill:#EEB490;" d="M187.338,269.224v68.493c0,36.959,29.838,66.797,66.797,66.797s66.797-29.838,66.797-66.797v-68.493
		H187.338z"/>
	<circle style="fill:#EEB490;" cx="151.735" cy="201.409" r="34.585"/>
	<circle style="fill:#EEB490;" cx="356.874" cy="201.409" r="34.585"/>
</g>
<path style="fill:#FACCB4;" d="M261.256,156.991l12.885-34.246c0,0-49.166,46.792-111.894,50.522v43.062
	c0,50.522,41.028,91.55,91.55,91.55s91.55-41.028,91.55-91.55V106.13C331.783,123.762,306.691,142.75,261.256,156.991z"/>
<path style="fill:#C19D7B;" d="M452.832,351.279c-19.666,60.016-101.044,104.774-198.697,104.774S75.105,411.295,55.438,351.279
	c-25.77,13.563-43.062,40.35-43.062,70.866v86.464h483.857v-86.464C495.894,391.629,478.601,364.842,452.832,351.279z"/>
<g>
</g>
<g>
</g>
<g>
</g>
<g>
</g>
<g>
</g>
<g>
</g>
<g>
</g>
<g>
</g>
<g>
</g>
<g>
</g>
<g>
</g>
<g>
</g>
<g>
</g>
<g>
</g>
<g>
</g>
</svg>
