<?xml version="1.0" encoding="iso-8859-1"?>
<!-- Generator: Adobe Illustrator 19.0.0, SVG Export Plug-In . SVG Version: 6.00 Build 0)  -->
<svg version="1.1" id="Layer_1" xmlns="http://www.w3.org/2000/svg" xmlns:xlink="http://www.w3.org/1999/xlink" x="0px" y="0px"
	 viewBox="0 0 512.001 512.001" style="enable-background:new 0 0 512.001 512.001;" xml:space="preserve">
<path style="fill:#1A6FAF;" d="M433.426,317.697c-47.392-47.392-110.403-73.492-177.426-73.492s-130.033,26.1-177.425,73.492
	S5.082,428.1,5.082,495.122c0,9.321,7.557,16.878,16.878,16.878h468.08c9.321,0,16.878-7.557,16.878-16.878
	C506.919,428.1,480.818,365.089,433.426,317.697z"/>
<path style="fill:#17649D;" d="M433.426,317.697c-47.392-47.392-110.403-73.492-177.426-73.492c-0.188,0-0.375,0.007-0.563,0.007
	v267.789H490.04c9.321,0,16.878-7.557,16.878-16.878C506.919,428.1,480.818,365.089,433.426,317.697z"/>
<circle style="fill:#155A8E;" cx="256.004" cy="111.54" r="111.54"/>
<path style="fill:#124D7A;" d="M256.001,0v223.086c61.604,0,111.544-49.939,111.544-111.544C367.543,49.939,317.604,0,256.001,0z"/>
<path style="fill:#C3A534;" d="M297.499,435.279c0.434,5.263-0.999,10.51-4.05,14.821l-29.236,41.31
	c-1.886,2.666-4.949,4.25-8.214,4.25s-6.327-1.584-8.214-4.25L218.55,450.1c-3.05-4.311-4.485-9.559-4.05-14.821l13.995-169.457
	h55.006L297.499,435.279z"/>
<path style="fill:#F6CE23;" d="M255.438,265.822h-26.94L214.502,435.28c-0.434,5.263,0.999,10.51,4.05,14.821l29.235,41.31
	c1.777,2.51,4.601,4.044,7.651,4.216V265.822z"/>
<path style="fill:#E5BF2B;" d="M198.077,250.903l46.698,46.698c6.2,6.2,16.252,6.2,22.452,0l46.698-46.698
	c-18.763-4.413-38.167-6.699-57.924-6.699C236.243,244.204,216.839,246.49,198.077,250.903z"/>
<path style="fill:#F7DC4D;" d="M255.438,244.212c-19.563,0.043-38.776,2.32-57.361,6.69l46.698,46.698
	c2.957,2.957,6.791,4.486,10.663,4.623V244.212z"/>
<g>
</g>
<g>
</g>
<g>
</g>
<g>
</g>
<g>
</g>
<g>
</g>
<g>
</g>
<g>
</g>
<g>
</g>
<g>
</g>
<g>
</g>
<g>
</g>
<g>
</g>
<g>
</g>
<g>
</g>
</svg>
